<?xml version="1.0" encoding="UTF-8"?>
<svg version="1.1" xmlns="http://www.w3.org/2000/svg" width="800" height="300">
<path d="M0 0 C-1 3 -1 3 -3.625 5.1875 C-6.39995732 7.8721019 -6.39995732 7.8721019 -6.0625 11.8125 C-5.19868419 16.25861078 -3.2337084 20.09360763 -1 24 C-0.12988281 23.29423828 -0.12988281 23.29423828 0.7578125 22.57421875 C11.51552795 14 11.51552795 14 16 14 C14.80702475 17.57892574 13.93419845 17.94027902 10.8125 19.875 C6.93641355 22.35173255 3.4645525 24.9796209 0 28 C0.2165625 28.9178125 0.433125 29.835625 0.65625 30.78125 C3.09424698 41.52649594 4.82702696 50.04549562 -1 60 C-5.31917084 64.80596263 -9.92934688 68.72583454 -16.5 69.3125 C-20 69 -20 69 -22.375 68.0625 C-25.07748163 64.63242716 -25.24015184 61.28378958 -25 57 C-23.03970143 46.64962355 -15.85437294 37.33402631 -8.12109375 30.4296875 C-7.42113281 29.62789062 -6.72117187 28.82609375 -6 28 C-6.30699448 25.37750929 -6.30699448 25.37750929 -7 23 C-7.55349121 23.25168945 -8.10698242 23.50337891 -8.67724609 23.76269531 C-11.24212516 24.92743332 -13.80855035 26.08872704 -16.375 27.25 C-17.24511719 27.64574219 -18.11523438 28.04148438 -19.01171875 28.44921875 C-39.03752281 37.4979154 -39.03752281 37.4979154 -48 37 C-50.76223278 34.23776722 -50.57856291 31.79293383 -51 28 C-51.88042969 28.44472656 -52.76085937 28.88945312 -53.66796875 29.34765625 C-55.41013672 30.19650391 -55.41013672 30.19650391 -57.1875 31.0625 C-58.33605469 31.63097656 -59.48460937 32.19945312 -60.66796875 32.78515625 C-64.11316577 34.04125973 -65.57908399 34.12742053 -69 33 C-69 30.69 -69 28.38 -69 26 C-69.49177734 26.27150879 -69.98355469 26.54301758 -70.49023438 26.82275391 C-102.43564956 44.34527389 -102.43564956 44.34527389 -115 43 C-117.375 41.9375 -117.375 41.9375 -119 40 C-120.25 36.3125 -120.25 36.3125 -121 33 C-121.73605469 33.44472656 -122.47210938 33.88945312 -123.23046875 34.34765625 C-124.20628906 34.91355469 -125.18210937 35.47945312 -126.1875 36.0625 C-127.15042969 36.63097656 -128.11335938 37.19945312 -129.10546875 37.78515625 C-132.32916541 39.13815174 -133.72520421 39.04769518 -137 38 C-137.33 37.01 -137.66 36.02 -138 35 C-138.81082031 35.51949219 -139.62164062 36.03898437 -140.45703125 36.57421875 C-159.49409215 48.5637996 -159.49409215 48.5637996 -168 49 C-168.66 48.67 -169.32 48.34 -170 48 C-170.12886183 40.59760355 -169.79725902 33.36040917 -169 26 C-169.60328125 26.67546875 -170.2065625 27.3509375 -170.828125 28.046875 C-171.62734375 28.93890625 -172.4265625 29.8309375 -173.25 30.75 C-174.03890625 31.63171875 -174.8278125 32.5134375 -175.640625 33.421875 C-181.51162791 39.8372093 -181.51162791 39.8372093 -185 41 C-186 40 -186 40 -186.1328125 38.1015625 C-186.1125771 31.68693981 -185.67899583 25.37771087 -185 19 C-185.66 19 -186.32 19 -187 19 C-190.74197856 23.82630189 -193.66331343 29.33007012 -196.54296875 34.703125 C-196.98060547 35.51475098 -197.41824219 36.32637695 -197.86914062 37.16259766 C-198.74101204 38.79105972 -199.60064121 40.42614166 -200.44726562 42.06787109 C-200.85009766 42.82148926 -201.25292969 43.57510742 -201.66796875 44.3515625 C-202.02141357 45.03041504 -202.3748584 45.70926758 -202.73901367 46.40869141 C-204 48 -204 48 -208 49 C-208 42.73 -208 36.46 -208 30 C-209.37671875 30.60328125 -210.7534375 31.2065625 -212.171875 31.828125 C-240.72234995 44.26415779 -240.72234995 44.26415779 -248 42 C-249.89428559 38.21142881 -249.29238189 34.12079724 -248.25 30.125 C-247.8375 29.42375 -247.425 28.7225 -247 28 C-245.68 27.67 -244.36 27.34 -243 27 C-243.66 31.29 -244.32 35.58 -245 40 C-233.79837912 36.4735638 -222.91079175 32.46105979 -212.08740234 27.89672852 C-211.19230957 27.52088623 -210.2972168 27.14504395 -209.375 26.7578125 C-208.57835937 26.4189502 -207.78171875 26.08008789 -206.9609375 25.73095703 C-205 25 -205 25 -203 25 C-201.70033703 29.6210239 -202.3527794 33.32083476 -203 38 C-202.50371094 37.02160156 -202.00742187 36.04320312 -201.49609375 35.03515625 C-191.20955286 15.05846956 -191.20955286 15.05846956 -185.796875 13.2734375 C-185.20390625 13.18320313 -184.6109375 13.09296875 -184 13 C-182.02931412 14.84403511 -181.05351421 16.29802947 -180.84619141 19.01757812 C-180.92960516 21.43913566 -181.099426 23.83641838 -181.3125 26.25 C-181.37373047 27.09046875 -181.43496094 27.9309375 -181.49804688 28.796875 C-181.65085825 30.86570599 -181.82350162 32.93305508 -182 35 C-181.18015625 34.07316406 -180.3603125 33.14632812 -179.515625 32.19140625 C-178.42752973 30.98136927 -177.33896335 29.77175581 -176.25 28.5625 C-175.71117187 27.95083984 -175.17234375 27.33917969 -174.6171875 26.70898438 C-174.08867187 26.12568359 -173.56015625 25.54238281 -173.015625 24.94140625 C-172.53383789 24.40201416 -172.05205078 23.86262207 -171.55566406 23.30688477 C-169.72488577 21.76888159 -168.35580168 21.31887415 -166 21 C-165 22 -165 22 -164.8671875 24.08203125 C-164.88726368 31.0986578 -165.31758064 38.01738762 -166 45 C-153.88903691 40.75837237 -143.15842587 33.96685708 -132.62109375 26.76171875 C-124.48336798 21.29209979 -124.48336798 21.29209979 -120 22 C-118.1875 23.375 -118.1875 23.375 -117 25 C-117 25.66 -117 26.32 -117 27 C-118.2065625 26.566875 -118.2065625 26.566875 -119.4375 26.125 C-124.72894021 25.93933543 -128.01986327 28.69020209 -132 32 C-132.495 32.99 -132.495 32.99 -133 34 C-128.63675918 32.69102776 -124.87007007 30.94624464 -120.9296875 28.70703125 C-119 28 -119 28 -115 29 C-115 31.97 -115 34.94 -115 38 C-99.56684055 39.33044478 -80.63646478 29.42430985 -68 21 C-65.3125 21.375 -65.3125 21.375 -63 22 C-63.66 24.64 -64.32 27.28 -65 30 C-64.19175781 29.566875 -63.38351562 29.13375 -62.55078125 28.6875 C-61.48214844 28.130625 -60.41351563 27.57375 -59.3125 27 C-58.25675781 26.443125 -57.20101562 25.88625 -56.11328125 25.3125 C-53.05171382 24.02180156 -51.26553656 23.54248174 -48 24 C-45.23776722 26.76223278 -45.42143709 29.20706617 -45 33 C-37.96951868 31.67417019 -31.84023155 29.45903464 -25.3125 26.5625 C-24.40177734 26.16740234 -23.49105469 25.77230469 -22.55273438 25.36523438 C-17.96806435 23.36422734 -13.44591913 21.29300307 -9 19 C-9.15726563 18.44183594 -9.31453125 17.88367188 -9.4765625 17.30859375 C-10.4091739 13.19535991 -10.60077051 9.17839263 -10 5 C-7.1174981 0.88214015 -5.07087453 -0.72441065 0 0 Z M-6.0390625 32.9140625 C-13.18821545 40.40879384 -21.22643452 49.85752463 -21.5625 60.75 C-21.30831658 64.0757881 -21.30831658 64.0757881 -19 66 C-12.85968583 65.72089481 -8.8455912 62.99939047 -4.75 58.5625 C-1.4547193 53.73726755 -0.72468302 49.89173543 -0.75 44.0625 C-0.74484375 42.87785156 -0.7396875 41.69320312 -0.734375 40.47265625 C-1.00006294 36.99917717 -1.75379447 34.23914532 -3 31 C-4.34459618 30.8859324 -4.34459618 30.8859324 -6.0390625 32.9140625 Z " fill="#010101" transform="translate(486,165)"/>
<path d="M0 0 C0.99 0 1.98 0 3 0 C2.8777858 0.72404022 2.75557159 1.44808044 2.62965393 2.19406128 C1.3964106 9.54085922 0.22533871 16.89534235 -0.91015625 24.2578125 C-1.2635085 26.53387954 -1.61702881 28.80992049 -1.97070312 31.0859375 C-2.52090239 34.62996259 -3.07007373 38.17413414 -3.61645508 41.71875 C-4.14881537 45.16975018 -4.68536133 48.62007765 -5.22265625 52.0703125 C-5.38621109 53.13790802 -5.54976593 54.20550354 -5.71827698 55.30545044 C-5.94872963 56.77871292 -5.94872963 56.77871292 -6.18383789 58.28173828 C-6.31770401 59.14711212 -6.45157013 60.01248596 -6.5894928 60.90408325 C-7 63 -7 63 -8 65 C-6.46859375 64.76990234 -6.46859375 64.76990234 -4.90625 64.53515625 C1.53452885 63.73005889 8.01811276 63.63841216 14.5 63.4375 C15.799375 63.39431641 17.09875 63.35113281 18.4375 63.30664062 C21.62490845 63.2011749 24.81238698 63.09905552 28 63 C28.09356277 62.39136108 28.18712555 61.78272217 28.28352356 61.15563965 C29.26311364 54.79451296 30.2547184 48.43534066 31.25317383 42.07714844 C31.62374397 39.70718172 31.99129603 37.33674098 32.35571289 34.96582031 C32.88145984 31.54882376 33.4182043 28.13370534 33.95703125 24.71875 C34.19629082 23.14015198 34.19629082 23.14015198 34.44038391 21.52966309 C35.37785245 15.66572548 36.69884683 10.47920905 39 5 C40.32 5 41.64 5 43 5 C42.852994 5.95387352 42.852994 5.95387352 42.70301819 6.92701721 C41.68054114 13.56203268 40.65859874 20.19713034 39.63696289 26.83227539 C39.25591443 29.30658026 38.87473092 31.78086434 38.4934082 34.25512695 C37.94446643 37.81716505 37.39601475 41.37927832 36.84765625 44.94140625 C36.59291283 46.59336754 36.59291283 46.59336754 36.33302307 48.27870178 C35.52733322 53.51549575 34.73468017 58.75275094 34 64 C35.2375 63.979375 36.475 63.95875 37.75 63.9375 C40.6640825 63.93233319 43.20953327 64.06984442 46 65 C46 65.66 46 66.32 46 67 C41.71 67 37.42 67 33 67 C32.82984375 69.23330078 32.82984375 69.23330078 32.65625 71.51171875 C31.91278404 79.69377106 30.50393676 87.77674081 29.15673828 95.8762207 C25.77920869 111.58257648 25.77920869 111.58257648 27 127 C27.2295082 133.54098361 27.2295082 133.54098361 26 136 C24.35 136 22.7 136 21 136 C21.05800781 135.10539063 21.11601562 134.21078125 21.17578125 133.2890625 C21.6026983 121.84768561 19.36317142 115.333416 11.625 106.9375 C5.04269657 100.65348827 -2.88731649 96.05634176 -11 92 C-11.33794471 95.02038089 -11.67048433 98.04119756 -12 101.0625 C-12.09539062 101.91005859 -12.19078125 102.75761719 -12.2890625 103.63085938 C-12.81056158 108.45472589 -13.10532727 113.14836264 -13 118 C-13.99 118 -14.98 118 -16 118 C-17.38308781 115.23382437 -17.11210196 112.98982 -17.09765625 109.8984375 C-17.09443359 108.68671875 -17.09121094 107.475 -17.08789062 106.2265625 C-17.07951172 104.95554687 -17.07113281 103.68453125 -17.0625 102.375 C-17.05798828 101.09625 -17.05347656 99.8175 -17.04882812 98.5 C-17.03701203 95.33328708 -17.02053815 92.16666644 -17 89 C-17.62044189 88.74307373 -18.24088379 88.48614746 -18.88012695 88.22143555 C-21.69416472 87.05109297 -24.50331723 85.86944579 -27.3125 84.6875 C-28.28896484 84.28337891 -29.26542969 83.87925781 -30.27148438 83.46289062 C-31.20927734 83.06650391 -32.14707031 82.67011719 -33.11328125 82.26171875 C-33.97735596 81.90037842 -34.84143066 81.53903809 -35.73168945 81.16674805 C-37.98906295 80.00562567 -39.41908134 78.97679731 -41 77 C-40.91796875 74.94140625 -40.91796875 74.94140625 -40 73 C-32.96305298 67.81396212 -21.50332132 66 -13 66 C-12.76216797 64.08380859 -12.76216797 64.08380859 -12.51953125 62.12890625 C-11.71522997 55.74776096 -10.86587401 49.37306321 -10 43 C-9.90807373 42.32205383 -9.81614746 41.64410767 -9.72143555 40.94561768 C-9.12508302 36.56503911 -8.51015519 32.18753839 -7.87631226 27.81222534 C-7.66889157 26.36653359 -7.46602964 24.92017964 -7.26797485 23.47317505 C-4.68612296 4.68612296 -4.68612296 4.68612296 0 0 Z M-9 70 C-9.40146756 72.07473748 -9.74627476 74.16057103 -10.0625 76.25 C-10.23910156 77.38953125 -10.41570312 78.5290625 -10.59765625 79.703125 C-10.94128788 82.51890262 -11.07980079 85.16973183 -11 88 C-10.10539062 88.4846875 -9.21078125 88.969375 -8.2890625 89.46875 C2.52678039 95.42369167 15.25704833 102.51409665 21 114 C21.66 114 22.32 114 23 114 C23.71443817 107.78892495 24.42625208 101.57755321 25.13623047 95.3659668 C25.37813674 93.2522905 25.62064673 91.1386832 25.86376953 89.02514648 C26.21284674 85.98959954 26.5597618 82.95381217 26.90625 79.91796875 C27.07030334 78.4975251 27.07030334 78.4975251 27.2376709 77.04838562 C27.33777466 76.16769913 27.43787842 75.28701263 27.54101562 74.37963867 C27.62984009 73.60464523 27.71866455 72.82965179 27.81018066 72.03117371 C28.0465238 69.84217317 28.0465238 69.84217317 28 67 C8.53757832 65.21948652 8.53757832 65.21948652 -9 70 Z M-24.0859375 72.09375 C-24.78847656 72.31933594 -25.49101562 72.54492188 -26.21484375 72.77734375 C-26.92769531 73.01582031 -27.64054688 73.25429687 -28.375 73.5 C-29.11105469 73.73847656 -29.84710938 73.97695312 -30.60546875 74.22265625 C-32.40619578 74.80730788 -34.2034691 75.4025788 -36 76 C-34.70374815 78.59250371 -33.70451437 78.70112231 -31.03515625 79.7265625 C-30.23529297 80.0359375 -29.43542969 80.3453125 -28.61132812 80.6640625 C-27.77021484 80.98117188 -26.92910156 81.29828125 -26.0625 81.625 C-25.22525391 81.94984375 -24.38800781 82.2746875 -23.52539062 82.609375 C-19.37568481 84.35232223 -19.37568481 84.35232223 -15 85 C-14.67 80.38 -14.34 75.76 -14 71 C-19.32752708 70.93661578 -19.32752708 70.93661578 -24.0859375 72.09375 Z " fill="#010101" transform="translate(185,131)"/>
<path d="M0 0 C0.66 0.33 1.32 0.66 2 1 C2.43933274 5.06382784 1.73469035 7.89082906 0.20703125 11.58203125 C-2.78961043 19.61666889 -4.08254854 27.95938824 -5.5625 36.375 C-5.86816738 38.07315212 -6.17424046 39.77123127 -6.48071289 41.46923828 C-8.59470257 53.27466834 -10.50170714 65.09927387 -12 77 C-10.86111328 76.25943359 -10.86111328 76.25943359 -9.69921875 75.50390625 C-8.70535156 74.86324219 -7.71148438 74.22257812 -6.6875 73.5625 C-5.70136719 72.92441406 -4.71523438 72.28632813 -3.69921875 71.62890625 C-1 70 -1 70 2 69 C3.485 69.99 3.485 69.99 5 71 C5.6875 74.625 5.6875 74.625 6 78 C18.42592683 78 29.93052521 70.0645095 39.86328125 63.25 C42 62 42 62 45 62 C44.13403824 66.25108502 42.15663682 69.74780886 40.15625 73.5625 C39.1279202 75.73033039 38.47688783 77.65891431 38 80 C44.02178817 76.99298094 47.97697616 73.24389865 52.4375 68.25 C53.07365234 67.55261719 53.70980469 66.85523438 54.36523438 66.13671875 C55.91844823 64.431687 57.46292948 62.71957567 59 61 C60.485 61.495 60.485 61.495 62 62 C61.5875 63.175625 61.175 64.35125 60.75 65.5625 C58.49998109 72.2802598 56.77895198 79.14606828 55 86 C71.00197347 83.79283124 84.96622341 71.42871286 97.86206055 62.47705078 C102.89487603 59 102.89487603 59 106 59 C104.60306552 62.34626035 103.13859426 63.91018947 100.140625 65.91796875 C98.97140503 66.70989624 98.97140503 66.70989624 97.77856445 67.51782227 C96.52692505 68.34431274 96.52692505 68.34431274 95.25 69.1875 C93.97032349 70.04589478 93.97032349 70.04589478 92.66479492 70.92163086 C90.11679642 72.62514986 87.55988383 74.3144087 85 76 C84.29504395 76.46760742 83.59008789 76.93521484 82.86376953 77.41699219 C63.01833407 90.5613071 63.01833407 90.5613071 54 90 C52 88 52 88 51.76953125 86.046875 C51.8527241 81.59983917 52.10234709 77.37605795 53 73 C52.34644531 73.68835938 52.34644531 73.68835938 51.6796875 74.390625 C48.04134252 78.13922285 44.65408619 81.57178112 40 84 C37.125 83.75 37.125 83.75 35 83 C34.80552713 78.13817832 35.35980225 74.55897484 37 70 C35.35064453 71.03060547 35.35064453 71.03060547 33.66796875 72.08203125 C14.71601581 83.71554201 14.71601581 83.71554201 6.31640625 82.6640625 C4 82 4 82 2.1875 80.1875 C1 78 1 78 1 74 C0.10796875 74.56589844 -0.7840625 75.13179688 -1.703125 75.71484375 C-2.88523996 76.45601107 -4.06754148 77.19688091 -5.25 77.9375 C-6.12978516 78.49727539 -6.12978516 78.49727539 -7.02734375 79.06835938 C-10.00526076 80.92537504 -12.57713041 82.26792238 -16 83 C-16.22902077 74.37061479 -15.59855022 66.10145629 -14.375 57.5625 C-14.2004126 56.32201904 -14.0258252 55.08153809 -13.84594727 53.8034668 C-6.83930322 5.97236602 -6.83930322 5.97236602 0 0 Z " fill="#010101" transform="translate(520,119)"/>
<path d="M0 0 C0.99 0.33 1.98 0.66 3 1 C2.67 2.65 2.34 4.3 2 6 C1.01 6 0.02 6 -1 6 C-1.042721 4.33388095 -1.04063832 2.66617115 -1 1 C-0.67 0.67 -0.34 0.34 0 0 Z " fill="#010101" transform="translate(244,176)"/>
</svg>
